<?xml version="1.0" encoding="UTF-8" standalone="yes"?>
<!DOCTYPE svg PUBLIC "-//W3C//DTD SVG 1.1//EN" "http://www.w3.org/Graphics/SVG/1.1/DTD/svg11.dtd">

<svg width="393" height="182" viewBox="0 0 393 182" xmlns="http://www.w3.org/2000/svg" xmlns:xlink="http://www.w3.org/1999/xlink" version="1.1" baseProfile="full">
    <g transform="scale(1,-1) translate(0,-182)">
        <path d="M 1.000000 15.280000 L 1.000000 1.000000 L 2.800000 1.000000 L 2.800000 12.880000 L 2.840000 12.880000 L 7.300000 1.000000 L 8.920000 1.000000 L 13.380000 12.880000 L 13.420000 12.880000 L 13.420000 1.000000 L 15.220000 1.000000 L 15.220000 15.280000 L 12.620000 15.280000 L 8.100000 3.280000 L 3.600000 15.280000 Z M 32.380000 15.280000 L 32.380000 1.000000 L 42.300000 1.000000 L 42.300000 2.600000 L 34.280000 2.600000 L 34.280000 7.540000 L 41.700000 7.540000 L 41.700000 9.140000 L 34.280000 9.140000 L 34.280000 13.680000 L 42.240000 13.680000 L 42.240000 15.280000 Z" transform="scale(1.000000,1.000000) translate(175.591730,44.279998)" fill="#ffffff" opacity="1.000000"></path>
        <path d="M 16.074933 42.489997 L 16.197433 42.981597 L 16.468833 43.944897 L 16.775433 44.881497 L 17.117133 45.791297 L 17.494033 46.674397 L 17.906033 47.530797 L 18.353233 48.360497 L 18.835633 49.163497 L 19.089933 49.554997 L 19.353633 49.938197 L 19.910533 50.674997 L 20.506733 51.372497 L 21.142333 52.030697 L 21.817333 52.649397 L 22.531733 53.228797 L 23.285533 53.768797 L 24.078633 54.269397 L 24.489933 54.504997 L 24.911833 54.728397 L 25.789333 55.131997 L 26.711833 55.477897 L 27.679333 55.766197 L 28.691833 55.996797 L 29.749333 56.169797 L 30.851833 56.285097 L 31.999333 56.342697 L 32.589933 56.349997 L 32.915333 56.346597 L 33.560833 56.319897 L 34.199233 56.266497 L 34.830633 56.186297 L 35.455033 56.079397 L 36.072333 55.945797 L 36.682633 55.785497 L 37.285933 55.598497 L 37.584933 55.494997 L 37.881133 55.385397 L 38.461933 55.150597 L 39.027233 54.894697 L 39.577033 54.617597 L 40.111433 54.319497 L 40.630333 54.000297 L 41.133833 53.659997 L 41.621733 53.298597 L 41.859933 53.109997 L 42.093733 52.916797 L 42.546533 52.518797 L 42.979633 52.105397 L 43.393133 51.676497 L 43.786833 51.232097 L 44.160933 50.772197 L 44.515333 50.296897 L 44.850033 49.806097 L 45.009933 49.554997 L 45.163933 49.300197 L 45.450833 48.781297 L 45.709533 48.249797 L 45.940233 47.705597 L 46.142733 47.148697 L 46.317033 46.579197 L 46.463333 45.996997 L 46.581433 45.402097 L 46.629933 45.099997 L 60.309933 45.099997 L 60.224133 45.792497 L 60.010433 47.148197 L 59.740433 48.464397 L 59.414133 49.741297 L 59.031633 50.978797 L 58.592933 52.176897 L 58.097933 53.335697 L 57.546633 54.454997 L 57.249933 54.999997 L 56.941133 55.534497 L 56.292833 56.570897 L 55.603733 57.563697 L 54.873933 58.512897 L 54.103333 59.418597 L 53.291933 60.280597 L 52.439733 61.098997 L 51.546733 61.873897 L 51.084933 62.244997 L 50.614233 62.605097 L 49.649533 63.292797 L 48.653933 63.936797 L 47.627333 64.537297 L 46.569833 65.094197 L 45.481433 65.607497 L 44.362033 66.077197 L 43.211733 66.503297 L 42.624933 66.699997 L 42.032033 66.885197 L 40.832533 67.219897 L 39.614733 67.506797 L 38.378633 67.745897 L 37.124233 67.937097 L 35.851533 68.080497 L 34.560633 68.176197 L 33.251433 68.223997 L 32.589933 68.229997 L 32.130133 68.227397 L 31.219233 68.206997 L 30.319933 68.166197 L 29.432233 68.105097 L 28.556133 68.023497 L 27.691633 67.921497 L 26.838833 67.799197 L 25.997533 67.656497 L 25.167833 67.493297 L 24.349733 67.309797 L 23.543233 67.105897 L 22.748333 66.881597 L 21.965033 66.636897 L 21.193433 66.371897 L 20.433333 66.086397 L 19.684833 65.780497 L 19.314933 65.619997 L 18.948333 65.454897 L 18.225833 65.113197 L 17.517833 64.755997 L 16.824133 64.383297 L 16.144933 63.995197 L 15.480133 63.591597 L 14.829733 63.172597 L 14.193833 62.737997 L 13.572233 62.287997 L 12.965033 61.822597 L 12.372333 61.341597 L 11.794033 60.845197 L 11.230133 60.333297 L 10.680633 59.805997 L 10.145533 59.263197 L 9.624833 58.704897 L 9.369933 58.419997 L 9.118633 58.131497 L 8.627233 57.545497 L 8.150433 56.947097 L 7.688533 56.336497 L 7.241333 55.713497 L 6.808933 55.078197 L 6.391233 54.430597 L 5.988333 53.770797 L 5.600233 53.098597 L 5.226833 52.414097 L 4.868233 51.717297 L 4.524433 51.008197 L 4.195433 50.286797 L 3.881133 49.553097 L 3.581533 48.806997 L 3.296833 48.048697 L 3.159933 47.664997 L 3.027033 47.278597 L 2.773933 46.499897 L 2.537733 45.713097 L 2.318333 44.918197 L 2.115833 44.115297 L 1.930233 43.304197 L 1.761433 42.485097 L 1.685233 42.069897 L 15.978033 42.069897 Z M 102.519933 66.699997 L 88.029933 66.699997 L 78.716033 42.069897 L 91.929733 42.069897 L 95.049933 50.859997 L 95.229933 50.859997 L 98.249433 42.069897 L 111.730333 42.069897 Z M 184.562833 42.186997 L 184.749133 42.776197 L 184.916833 43.377397 L 185.065933 43.990497 L 185.196333 44.615597 L 185.308133 45.252597 L 185.401333 45.901597 L 185.475833 46.562497 L 185.531733 47.235397 L 185.569033 47.920297 L 185.587633 48.617097 L 185.589933 48.969997 L 185.584833 49.429297 L 185.544033 50.336297 L 185.462533 51.227897 L 185.340133 52.103997 L 185.177033 52.964597 L 184.973133 53.809697 L 184.728433 54.639397 L 184.442933 55.453597 L 184.284933 55.854997 L 184.117233 56.251297 L 183.754433 57.026197 L 183.355033 57.777097 L 182.919133 58.504197 L 182.446633 59.207297 L 181.937533 59.886497 L 181.391933 60.541797 L 180.809733 61.173197 L 180.504933 61.479997 L 180.191733 61.779697 L 179.542033 62.354797 L 178.861433 62.897597 L 178.149833 63.408097 L 177.407333 63.886197 L 176.633933 64.331997 L 175.829533 64.745397 L 174.994233 65.126497 L 174.564933 65.304997 L 174.128533 65.473897 L 173.235533 65.778997 L 172.315833 66.040597 L 171.369433 66.258597 L 170.396333 66.432897 L 169.396433 66.563697 L 168.369933 66.650897 L 167.316633 66.694497 L 166.779933 66.699997 L 132.129933 66.699997 L 132.129933 42.069897 L 146.259933 42.069897 L 146.259933 55.719997 L 161.739933 55.719997 L 162.337933 55.711697 L 163.477033 55.645597 L 164.540133 55.513397 L 165.527333 55.315097 L 166.438633 55.050797 L 167.273933 54.720297 L 168.033233 54.323697 L 168.716733 53.861097 L 169.029933 53.604997 L 169.324233 53.330597 L 169.855733 52.721697 L 170.311433 52.032597 L 170.691133 51.263397 L 170.994833 50.413997 L 171.222633 49.484497 L 171.374533 48.474797 L 171.450433 47.384897 L 171.459933 46.809997 L 171.450433 46.212997 L 171.374533 45.082397 L 171.222633 44.036097 L 170.994833 43.074197 L 170.691133 42.196697 L 170.630433 42.069897 L 184.521233 42.069897 Z M 211.239933 54.819997 L 245.169933 54.819997 L 245.169933 66.699997 L 197.109933 66.699997 L 197.109933 42.069897 L 211.239933 42.069897 Z M 33.328633 1.006997 L 34.782633 1.063197 L 36.205733 1.175697 L 37.597933 1.344497 L 38.959233 1.569497 L 40.289533 1.850697 L 41.588933 2.188197 L 42.857333 2.581997 L 43.479933 2.799997 L 44.093733 3.031297 L 45.291933 3.531897 L 46.450633 4.083197 L 47.570033 4.684997 L 48.650033 5.337497 L 49.690633 6.040697 L 50.691933 6.794397 L 51.653733 7.598797 L 52.119933 8.019997 L 52.575533 8.453097 L 53.453033 9.353097 L 54.285533 10.298097 L 55.073033 11.288097 L 55.815533 12.323097 L 56.513033 13.403097 L 57.165533 14.528097 L 57.773033 15.698097 L 58.059933 16.299997 L 58.334533 16.911997 L 58.843633 18.163597 L 59.299233 19.451697 L 59.701433 20.776397 L 60.050133 22.137597 L 60.345433 23.535497 L 60.587333 24.969797 L 60.775733 26.440797 L 60.838033 27.069897 L 47.154033 27.069897 L 47.116533 26.787397 L 46.993133 25.997097 L 46.847633 25.226497 L 46.679933 24.475497 L 46.490033 23.744297 L 46.278033 23.032697 L 46.043933 22.340897 L 45.787633 21.668697 L 45.509233 21.016197 L 45.208633 20.383397 L 44.885933 19.770197 L 44.541033 19.176797 L 44.173933 18.602997 L 43.784833 18.048997 L 43.373433 17.514597 L 42.940033 16.999897 L 42.714933 16.749997 L 42.484333 16.506297 L 42.006633 16.042297 L 41.506633 15.609097 L 40.984633 15.206897 L 40.440433 14.835697 L 39.874033 14.495397 L 39.285533 14.185997 L 38.674833 13.907597 L 38.042033 13.660097 L 37.387033 13.443497 L 36.709933 13.257897 L 36.010733 13.103197 L 35.289333 12.979397 L 34.545733 12.886597 L 33.780033 12.824797 L 32.992133 12.793797 L 32.589933 12.789997 L 31.999333 12.797197 L 30.851833 12.854797 L 29.749333 12.970097 L 28.691833 13.143097 L 27.679333 13.373697 L 26.711833 13.661997 L 25.789333 14.007897 L 24.911833 14.411497 L 24.489933 14.634997 L 24.078633 14.870297 L 23.285533 15.369497 L 22.531733 15.906697 L 21.817333 16.481897 L 21.142333 17.094997 L 20.506733 17.746097 L 19.910533 18.435197 L 19.353633 19.162197 L 19.089933 19.539997 L 18.835633 19.925397 L 18.353233 20.714297 L 17.906033 21.527197 L 17.494033 22.363897 L 17.117133 23.224497 L 16.775433 24.108997 L 16.468833 25.017497 L 16.197433 25.949797 L 16.074933 26.424997 L 15.960533 26.903997 L 15.924933 27.069897 L 1.616633 27.069897 L 1.761433 26.296897 L 1.930233 25.493197 L 2.115833 24.696897 L 2.318333 23.907997 L 2.537733 23.126497 L 2.773933 22.352297 L 3.027033 21.585597 L 3.159933 21.204997 L 3.296833 20.826797 L 3.581533 20.079697 L 3.881133 19.344997 L 4.195433 18.622497 L 4.524433 17.912397 L 4.868233 17.214497 L 5.226833 16.528997 L 5.600233 15.855697 L 5.988333 15.194797 L 6.391233 14.546097 L 6.808933 13.909797 L 7.241333 13.285797 L 7.688533 12.674097 L 8.150433 12.074697 L 8.627233 11.487497 L 9.118633 10.912697 L 9.369933 10.629997 L 9.624833 10.350597 L 10.145533 9.803197 L 10.680633 9.270897 L 11.230133 8.753797 L 11.794033 8.251797 L 12.372333 7.764897 L 12.965033 7.293097 L 13.572233 6.836397 L 14.193833 6.394797 L 14.829733 5.968397 L 15.480133 5.556997 L 16.144933 5.160797 L 16.824133 4.779697 L 17.517833 4.413797 L 18.225833 4.062897 L 18.948333 3.727197 L 19.314933 3.564997 L 19.684833 3.407097 L 20.433333 3.106597 L 21.193433 2.825997 L 21.965033 2.565497 L 22.748333 2.324997 L 23.543233 2.104597 L 24.349733 1.904197 L 25.167833 1.723897 L 25.997533 1.563597 L 26.838833 1.423297 L 27.691633 1.302997 L 28.556133 1.202797 L 29.432233 1.122697 L 30.319933 1.062597 L 31.219233 1.022497 L 32.130133 1.002497 L 32.589933 0.999997 Z M 82.989933 16.749997 L 107.019933 16.749997 L 111.879933 2.439997 L 126.549933 2.439997 L 117.339633 27.069897 L 73.043733 27.069897 L 63.729933 2.439997 L 77.949933 2.439997 Z M 146.259933 27.069897 L 132.129933 27.069897 L 132.129933 2.439997 L 146.259933 2.439997 Z M 187.240233 2.786597 L 186.807033 3.534697 L 186.435833 4.355997 L 186.126433 5.250297 L 185.994933 5.724997 L 185.875433 6.212197 L 185.661633 7.207797 L 185.481633 8.231597 L 185.335433 9.283497 L 185.274933 9.819997 L 185.220833 10.358497 L 185.125233 11.427297 L 185.046433 12.484797 L 184.984533 13.530997 L 184.959933 14.049997 L 184.914933 15.051197 L 184.824933 16.851197 L 184.779933 17.649997 L 184.730033 18.257497 L 184.600633 19.472497 L 184.431933 20.687497 L 184.223733 21.902497 L 184.104933 22.509997 L 184.040833 22.812097 L 183.898733 23.406997 L 183.738433 23.989197 L 183.559833 24.558697 L 183.362933 25.115597 L 183.147833 25.659797 L 182.914433 26.191297 L 182.662633 26.710197 L 182.529933 26.964997 L 182.472533 27.069897 L 164.573033 27.069897 L 165.423933 26.809597 L 166.287433 26.443897 L 167.058033 26.005197 L 167.735833 25.493297 L 168.039933 25.209997 L 168.326133 24.906897 L 168.860533 24.237497 L 169.344233 23.483797 L 169.777333 22.645697 L 170.159833 21.723197 L 170.491733 20.716297 L 170.773033 19.624997 L 171.003633 18.449397 L 171.099933 17.829997 L 171.230733 16.856797 L 171.466933 14.876797 L 171.669433 12.851797 L 171.838233 10.781797 L 171.909933 9.729997 L 171.947233 9.205797 L 172.042833 8.184797 L 172.166633 7.200497 L 172.318433 6.252597 L 172.498433 5.341397 L 172.706633 4.466697 L 172.942833 3.628597 L 173.207233 2.826997 L 173.349933 2.439997 L 187.479933 2.439997 Z M 245.889933 14.319997 L 211.239933 14.319997 L 211.239933 27.069897 L 197.109933 27.069897 L 197.109933 2.439997 L 245.889933 2.439997 Z" transform="scale(1.000000,1.000000) translate(103.093467,68.560003)" fill="#ffffff" opacity="1.000000"></path>
        <path d="M 42.752301 64.898697 L 41.755301 65.397897 L 40.725901 65.853597 L 39.664201 66.265597 L 38.671401 66.599897 L 17.038001 66.599897 L 16.965101 66.576897 L 15.941301 66.205697 L 14.945701 65.794997 L 13.978201 65.344997 L 13.038801 64.855697 L 12.942601 64.799897 L 42.927901 64.799897 Z M 47.208401 61.748697 L 46.401201 62.465897 L 45.724501 62.999897 L 10.199801 62.999897 L 9.576801 62.505997 L 8.803401 61.822597 L 8.171001 61.199897 L 47.757201 61.199897 Z M 49.973101 58.443997 L 49.351501 59.335597 L 49.300801 59.399897 L 6.622101 59.399897 L 6.117401 58.709097 L 5.547901 57.835797 L 5.406901 57.599897 L 50.492201 57.599897 Z M 18.488001 54.329197 L 19.061801 54.891697 L 19.697401 55.397897 L 20.038401 55.629997 L 20.316001 55.799897 L 4.490801 55.799897 L 4.163101 54.979397 L 3.849901 53.999897 L 18.215601 53.999897 Z M 51.933701 54.415497 L 51.537201 55.498297 L 51.401801 55.799897 L 34.342301 55.799897 L 34.634801 55.652797 L 35.077701 55.402497 L 35.293401 55.269997 L 35.504501 55.131797 L 35.910901 54.836497 L 36.296201 54.515897 L 36.660501 54.169897 L 36.817601 53.999897 L 52.054701 53.999897 Z M 16.875101 50.710897 L 16.931301 51.183397 L 17.015701 51.633397 L 17.128201 52.060897 L 17.176501 52.199897 L 3.448801 52.199897 L 3.370001 51.756297 L 3.237801 50.600297 L 3.226701 50.399897 L 16.857401 50.399897 Z M 52.726901 50.854897 L 52.528601 52.093797 L 52.505001 52.199897 L 38.090901 52.199897 L 38.164401 52.059797 L 38.396501 51.556397 L 38.601801 51.021997 L 38.780401 50.456697 L 38.794901 50.399897 L 52.773501 50.399897 Z M 17.563401 46.899997 L 17.394701 47.203697 L 17.124701 47.878697 L 16.955001 48.599897 L 3.165701 48.599897 L 3.169901 48.243797 L 3.221901 47.182097 L 3.260901 46.799897 L 17.629101 46.799897 Z M 52.925101 48.220897 L 52.906501 48.599897 L 39.152201 48.599897 L 39.155901 48.575097 L 39.227601 47.886097 L 39.253401 47.529997 L 52.933401 47.529997 Z M 24.072201 43.378697 L 23.290401 43.626197 L 22.559101 43.873697 L 21.878501 44.121197 L 21.248501 44.368697 L 20.669101 44.616197 L 20.398401 44.739997 L 20.139501 44.864397 L 19.879701 44.999897 L 3.522201 44.999897 L 3.690201 44.241597 L 3.950401 43.342997 L 4.002501 43.199897 L 24.673601 43.199897 Z M 54.654101 25.874597 L 54.367301 26.982697 L 54.361401 26.999897 L 34.944601 26.999897 L 35.383401 26.829997 L 35.716901 26.692797 L 36.359501 26.405997 L 36.969801 26.102197 L 37.547801 25.781597 L 38.093401 25.444097 L 38.447101 25.199897 L 54.778301 25.199897 Z M 14.797701 21.841597 L 14.724501 22.589797 L 14.688001 23.368797 L 14.687601 23.399897 L 1.000101 23.399897 L 1.007101 22.670397 L 1.032401 21.953297 L 1.054301 21.599997 L 14.834701 21.599997 Z M 55.084401 22.187397 L 55.017001 23.399897 L 40.372901 23.399897 L 40.626401 23.020797 L 40.886601 22.522997 L 41.094701 21.994197 L 41.204601 21.599997 L 55.092301 21.599997 Z M 16.002601 18.001997 L 15.853401 18.279997 L 15.711701 18.565097 L 15.455801 19.158497 L 15.236401 19.782897 L 15.231601 19.799997 L 1.229501 19.799997 L 1.316501 19.211097 L 1.433201 18.557197 L 1.550501 17.999997 L 16.003801 17.999997 Z M 54.926401 18.825197 L 55.024401 19.799997 L 41.411801 19.799997 L 41.408501 19.599497 L 41.369101 19.018797 L 41.290401 18.464697 L 41.186201 17.999997 L 54.799601 17.999997 Z M 19.202901 14.463397 L 18.958401 14.634997 L 18.719501 14.812697 L 18.259701 15.188097 L 17.823701 15.590297 L 17.411701 16.019197 L 17.257701 16.199997 L 2.041401 16.199997 L 2.082901 16.068097 L 2.291001 15.477497 L 2.517401 14.899497 L 2.733601 14.399997 L 19.301001 14.399997 Z M 53.964501 14.769597 L 54.285201 15.753997 L 54.403901 16.199997 L 40.374701 16.199997 L 40.306001 16.095197 L 40.153401 15.894997 L 39.993401 15.700697 L 39.658801 15.328097 L 39.304401 14.976497 L 38.930301 14.645997 L 38.617201 14.399997 L 53.821201 14.399997 Z M 52.152101 11.068497 L 52.683601 11.948797 L 53.025801 12.599997 L 34.790401 12.599997 L 34.535401 12.523497 L 33.489201 12.292797 L 32.953401 12.204997 L 32.417601 12.131097 L 31.371401 12.012997 L 30.358901 11.934197 L 29.380101 11.894897 L 28.903401 11.889997 L 28.555401 11.892597 L 27.863501 11.913697 L 27.177201 11.955897 L 26.496601 12.019197 L 25.821601 12.103497 L 25.152201 12.208997 L 24.488501 12.335597 L 23.830401 12.483197 L 23.503401 12.564997 L 23.373401 12.599997 L 3.673601 12.599997 L 4.062501 11.943697 L 4.723501 10.959397 L 4.844401 10.799997 L 51.967301 10.799997 Z M 49.505501 7.870697 L 50.245201 8.621697 L 50.577301 8.999997 L 6.321901 8.999997 L 7.001601 8.293097 L 7.859401 7.499997 L 8.224501 7.199997 L 48.766601 7.199997 Z M 42.892101 3.604897 L 43.989001 4.101297 L 45.035201 4.635597 L 46.030801 5.207997 L 46.328101 5.399997 L 10.723901 5.399997 L 11.743301 4.801197 L 12.809201 4.242897 L 13.911701 3.731097 L 14.232501 3.599997 L 42.879801 3.599997 Z M 29.178501 1.005897 L 30.771801 1.053697 L 32.315901 1.149397 L 33.810701 1.292797 L 35.256301 1.484097 L 36.652701 1.723097 L 37.013801 1.799997 L 20.261401 1.799997 L 21.211001 1.616797 L 22.489301 1.412897 L 23.777501 1.249697 L 25.075401 1.127397 L 26.383201 1.045797 L 27.700901 1.005097 L 28.363401 0.999997 Z" transform="scale(1.000000,1.000000) translate(44.499999,68.560003)" fill="#ffffff" opacity="1.000000"></path>
    </g>
</svg>